<svg width="79" height="45" viewBox="0 0 79 45" xmlns="http://www.w3.org/2000/svg">
<path fill-rule="evenodd" clip-rule="evenodd" d="M27.2311 0.700133L27.3147 0.905893L42.7994 39.0159L47.0348 39.6117L47.2543 39.6425L47.25 39.8641L47.1883 43.0049L47.1835 43.25H46.9383H27.5147H27.3073L27.269 43.0461L26.8991 41.0755L27.1448 41.0293L27.0151 40.8156C28.146 40.1298 29.873 39.2937 32.1884 38.3075L29.7486 32.0418H15.4175L12.8739 38.8546L18.2387 39.6117L18.4581 39.6426L18.4537 39.8641L18.392 43.0049L18.3872 43.25H18.1421H1.36997H1.16254L1.12427 43.0461L0.754293 41.0755L1 41.0293L0.866359 40.818C2.09923 40.0382 3.78809 39.2236 5.92668 38.3729L19.4763 5.12379L18.7723 3.30736L18.6722 3.0492L18.9392 2.97592L27.0169 0.758915L27.2311 0.700133ZM1.2772 41.151L1.57741 42.75H17.897L17.9495 40.0758L12.4959 39.3062L12.1878 39.2627L12.2966 38.9712L15.0098 31.7043L15.0705 31.5418H15.244H29.9196H30.0905L30.1525 31.7011L32.7423 38.3521L32.8305 38.5784L32.6068 38.673C30.2872 39.6547 28.5615 40.4817 27.4226 41.1544L27.7222 42.75H46.6932L46.7457 40.0759L42.5872 39.491L42.4446 39.4709L42.3904 39.3375L26.9351 1.29987L19.3385 3.38481L19.9784 5.03575L20.0143 5.12841L19.9768 5.22045L6.34948 38.6603L6.3092 38.7592L6.20995 38.7984C4.12244 39.6245 2.48013 40.4091 1.2772 41.151ZM22.5 12.3163L22.7327 12.9086L28.2327 26.9086L28.3668 27.25H28H17H16.6332L16.7673 26.9086L22.2673 12.9086L22.5 12.3163ZM17.3668 26.75H27.6332L22.5 13.6837L17.3668 26.75ZM47.9886 3.89441C51.3583 1.79442 55.3839 0.75 60.0544 0.75C65.2121 0.75 69.5561 2.01171 73.0708 4.54983L73.1683 4.62019L73.1742 4.74024L73.2346 5.97057L73.2352 5.98283H73.2349C73.2349 8.92 72.7879 12.0181 71.8967 15.2763L71.8464 15.4603H71.6556H66.1571H65.9542L65.9125 15.2618L64.4891 8.49946C61.4967 7.23504 58.3693 6.60261 55.105 6.60193L53.7357 6.66002C51.7167 8.14204 50.1932 10.2377 49.1706 12.9606C48.135 15.7182 47.6156 18.7433 47.6156 22.0386C47.6156 26.5897 48.7424 30.3159 50.978 33.2365C53.2084 36.1503 56.1077 37.6198 59.6946 37.6599L59.6996 37.6599V37.66C60.963 37.699 62.6275 37.5493 64.6986 37.2062V29.103C62.6124 28.3321 60.6406 27.4239 58.7837 26.3781L58.6299 26.2914L58.66 26.1175L59.0226 24.026L59.0585 23.8187H59.2689H77.9396H78.1845L78.1895 24.0636L78.2499 27.0163L78.2542 27.2227L78.0524 27.2659L73.6579 28.2078V38.4635V38.6288L73.5057 38.6936L60.6356 44.1685L60.5928 44.1868L60.5462 44.1883L58.7336 44.2499L58.7251 44.2501V44.25C54.8897 44.25 51.5634 43.5828 48.7539 42.2389C48.1881 41.9682 47.6434 41.6702 47.1199 41.3447L47.0019 41.2713V41.1324V39.8082C46.1165 39.6782 45.1414 39.5334 44.3674 39.4181C43.9489 39.3557 43.5891 39.302 43.334 39.2638L43.0354 39.2191L42.9557 39.2072L42.9352 39.2041L42.93 39.2034L42.9287 39.2032L42.9283 39.2031L42.9283 39.2031L42.7872 39.1819L42.7336 39.0498L42.9653 38.9558L42.7336 39.0498L42.7336 39.0497L42.7335 39.0494L42.733 39.0482L42.7311 39.0435L42.7236 39.0252L42.6953 38.9553L42.593 38.7026C42.5078 38.4918 42.3926 38.2064 42.2727 37.9083C42.0343 37.315 41.7741 36.6629 41.6986 36.4543C41.632 36.2703 40.83 34.2672 39.985 32.1565L39.7894 31.668C39.334 30.5303 38.8827 29.4025 38.5443 28.5537C38.3752 28.1293 38.2342 27.7744 38.135 27.5228C38.0854 27.3971 38.0461 27.2967 38.0189 27.2261C38.0054 27.1909 37.9945 27.1624 37.9868 27.1415C37.983 27.1312 37.9794 27.1215 37.9766 27.1133C37.9752 27.1093 37.9735 27.1042 37.9718 27.0987L37.9718 27.0987C37.9714 27.0974 37.9659 27.0803 37.9628 27.06C37.7696 25.8219 37.75 24.5242 37.75 23.269C37.75 19.3348 38.6147 15.6463 40.3446 12.2067C42.0778 8.76059 44.6275 5.98904 47.9886 3.89441ZM43.1434 38.7297L43.4079 38.7693C43.663 38.8075 44.0227 38.8612 44.441 38.9235C45.2778 39.0482 46.3492 39.2073 47.2881 39.3449L47.5019 39.3762V39.5922V40.9927C47.9733 41.2802 48.4626 41.5452 48.9697 41.7878C51.6966 43.0923 54.9444 43.7495 58.7209 43.75L60.4827 43.6902L73.1579 38.2982V28.0057V27.8036L73.3555 27.7613L77.7458 26.8203L77.6946 24.3187H59.4793L59.1829 26.0286C61.019 27.0515 62.9694 27.9399 65.0344 28.6936L65.1986 28.7536V28.9285V37.4177V37.6289L64.9905 37.6642C62.8094 38.0343 61.0394 38.2013 59.6866 38.1598C55.9433 38.1173 52.9019 36.5725 50.5809 33.5404C48.2646 30.5143 47.1156 26.674 47.1156 22.0386C47.1156 18.6902 47.6435 15.6047 48.7025 12.7848C49.7644 9.95726 51.3627 7.76136 53.5029 6.21099L53.5638 6.16686L53.639 6.16367L55.0891 6.10216L55.0997 6.10171V6.10193C58.4768 6.10193 61.7128 6.76494 64.8055 8.09068L64.9248 8.14186L64.9516 8.26897L66.36 14.9603H71.4644C72.3116 11.8087 72.7343 8.81851 72.7349 5.98895L72.6807 4.88533C69.2839 2.46654 65.0801 1.25 60.0544 1.25C55.46 1.25 51.5299 2.27663 48.2531 4.31875C44.9676 6.36623 42.4821 9.06964 40.7913 12.4314C39.0973 15.7996 38.25 19.411 38.25 23.269C38.25 24.5166 38.27 25.7723 38.4535 26.962L38.4557 26.9679C38.4622 26.9856 38.4721 27.0117 38.4854 27.0462C38.512 27.115 38.5507 27.214 38.6002 27.3394C38.699 27.5901 38.8397 27.9443 39.0088 28.3686C39.347 29.217 39.7982 30.3444 40.2536 31.4821L40.4645 32.009C41.3015 34.0995 42.0991 36.0916 42.1687 36.2841C42.2405 36.4822 42.4962 37.1235 42.7367 37.7218C42.8563 38.0195 42.9714 38.3045 43.0566 38.5152L43.1434 38.7297ZM38.4478 26.9455C38.4478 26.9457 38.4484 26.9474 38.4493 26.9503C38.4481 26.9469 38.4477 26.9454 38.4478 26.9455Z"/>
<path stroke="#ffffff" d="M27.3147 0.905893L27.0831 1V1L27.3147 0.905893ZM27.2311 0.700133L27.4627 0.606026L27.3791 0.400266L27.165 0.459048L27.2311 0.700133ZM42.7994 39.0159L42.5678 39.11L42.622 39.2434L42.7646 39.2635L42.7994 39.0159ZM47.0348 39.6117L47 39.8592L47.0348 39.6117ZM47.2543 39.6425L47.5043 39.6475L47.5086 39.4259L47.2891 39.395L47.2543 39.6425ZM47.25 39.8641L47 39.8592V39.8592L47.25 39.8641ZM47.1883 43.0049L46.9383 43L47.1883 43.0049ZM47.1835 43.25V43.5H47.4286L47.4334 43.2549L47.1835 43.25ZM27.3073 43.25L27.0616 43.2961L27.0999 43.5H27.3073V43.25ZM27.269 43.0461L27.5147 43L27.269 43.0461ZM26.8991 41.0755L26.8529 40.8297L26.6072 40.8759L26.6534 41.1216L26.8991 41.0755ZM27.1448 41.0293L27.1909 41.275L27.5457 41.2084L27.3585 40.8997L27.1448 41.0293ZM27.0151 40.8156L26.8855 40.6018L26.6718 40.7314L26.8014 40.9452L27.0151 40.8156ZM32.1884 38.3075L32.2864 38.5375L32.5093 38.4426L32.4214 38.2168L32.1884 38.3075ZM29.7486 32.0418L29.9816 31.9511L29.9196 31.7918H29.7486V32.0418ZM15.4175 32.0418V31.7918H15.244L15.1833 31.9543L15.4175 32.0418ZM12.8739 38.8546L12.6397 38.7671L12.5308 39.0587L12.8389 39.1021L12.8739 38.8546ZM18.2387 39.6117L18.2038 39.8592H18.2038L18.2387 39.6117ZM18.4581 39.6426L18.708 39.6476L18.7124 39.4261L18.493 39.3951L18.4581 39.6426ZM18.4537 39.8641L18.2038 39.8592L18.4537 39.8641ZM18.392 43.0049L18.642 43.0098V43.0098L18.392 43.0049ZM18.3872 43.25V43.5H18.6324L18.6372 43.2549L18.3872 43.25ZM1.16254 43.25L0.916833 43.2961L0.955107 43.5H1.16254V43.25ZM1.12427 43.0461L1.36997 43H1.36997L1.12427 43.0461ZM0.754293 41.0755L0.708165 40.8297L0.462456 40.8759L0.508585 41.1216L0.754293 41.0755ZM1 41.0293L1.04613 41.275L1.40823 41.2071L1.21128 40.8957L1 41.0293ZM0.866359 40.818L0.732718 40.6068L0.521435 40.7404L0.655077 40.9517L0.866359 40.818ZM5.92668 38.3729L6.01908 38.6052L6.11801 38.5659L6.15819 38.4673L5.92668 38.3729ZM19.4763 5.12379L19.7078 5.21813L19.7453 5.1261L19.7094 5.03344L19.4763 5.12379ZM18.7723 3.30736L19.0054 3.21701V3.21701L18.7723 3.30736ZM18.6722 3.0492L18.606 2.80812L18.339 2.8814L18.4391 3.13955L18.6722 3.0492ZM18.9392 2.97592L19.0054 3.21701L18.9392 2.97592ZM27.0169 0.758915L26.9508 0.517831V0.517831L27.0169 0.758915ZM1.57741 42.75L1.3317 42.7961L1.36997 43H1.57741V42.75ZM1.2772 41.151L1.14597 40.9382L0.999809 41.0283L1.03149 41.1971L1.2772 41.151ZM17.897 42.75V43H18.1421L18.1469 42.7549L17.897 42.75ZM17.9495 40.0758L18.1994 40.0807L18.2038 39.8592L17.9844 39.8283L17.9495 40.0758ZM12.4959 39.3062L12.461 39.5537H12.461L12.4959 39.3062ZM12.1878 39.2627L11.9536 39.1753L11.8447 39.4668L12.1529 39.5103L12.1878 39.2627ZM12.2966 38.9712L12.5308 39.0587L12.2966 38.9712ZM15.0098 31.7043L15.244 31.7918L15.244 31.7918L15.0098 31.7043ZM15.0705 31.5418V31.2918H14.8969L14.8362 31.4543L15.0705 31.5418ZM30.0905 31.5418L30.3235 31.4511L30.2614 31.2918H30.0905V31.5418ZM30.1525 31.7011L29.9196 31.7918L29.9196 31.7918L30.1525 31.7011ZM32.7423 38.3521L32.9753 38.2614L32.7423 38.3521ZM32.8305 38.5784L32.9279 38.8086L33.1515 38.714L33.0634 38.4877L32.8305 38.5784ZM32.6068 38.673L32.7042 38.9033H32.7042L32.6068 38.673ZM27.4226 41.1544L27.2955 40.9392L27.1446 41.0283L27.1769 41.2005L27.4226 41.1544ZM27.7222 42.75L27.4765 42.7961L27.5147 43H27.7222V42.75ZM46.6932 42.75V43H46.9383L46.9431 42.7549L46.6932 42.75ZM46.7457 40.0759L46.9957 40.0808L47 39.8592L46.7805 39.8284L46.7457 40.0759ZM42.5872 39.491L42.5523 39.7385L42.5872 39.491ZM42.4446 39.4709L42.213 39.565L42.2672 39.6984L42.4097 39.7185L42.4446 39.4709ZM42.3904 39.3375L42.1588 39.4316H42.1588L42.3904 39.3375ZM26.9351 1.29987L27.1667 1.20576L27.0831 1L26.8689 1.05878L26.9351 1.29987ZM19.3385 3.38481L19.2724 3.14373L19.0054 3.21701L19.1054 3.47516L19.3385 3.38481ZM19.9784 5.03575L20.2115 4.9454V4.9454L19.9784 5.03575ZM20.0143 5.12841L20.2458 5.22276L20.2833 5.13073L20.2474 5.03807L20.0143 5.12841ZM19.9768 5.22045L20.2083 5.31479V5.31479L19.9768 5.22045ZM6.34948 38.6603L6.11796 38.566H6.11796L6.34948 38.6603ZM6.3092 38.7592L6.40118 38.9916L6.50043 38.9524L6.54071 38.8535L6.3092 38.7592ZM6.20995 38.7984L6.11796 38.566H6.11796L6.20995 38.7984ZM22.7327 12.9086L22.9654 12.8172L22.7327 12.9086ZM22.5 12.3163L22.7327 12.2249L22.5 11.6326L22.2673 12.2249L22.5 12.3163ZM28.2327 26.9086L28.4654 26.8172L28.2327 26.9086ZM28.3668 27.25V27.5H28.7336L28.5995 27.1586L28.3668 27.25ZM16.6332 27.25L16.4005 27.1586L16.2664 27.5H16.6332V27.25ZM16.7673 26.9086L16.5346 26.8172L16.7673 26.9086ZM22.2673 12.9086L22.0346 12.8172L22.2673 12.9086ZM27.6332 26.75V27H28L27.8659 26.6586L27.6332 26.75ZM17.3668 26.75L17.1341 26.6586L17 27H17.3668V26.75ZM22.5 13.6837L22.7327 13.5923L22.5 13L22.2673 13.5923L22.5 13.6837ZM47.9886 3.89441L47.8564 3.68224L47.9886 3.89441ZM73.0708 4.54983L72.9245 4.7525V4.7525L73.0708 4.54983ZM73.1683 4.62019L73.418 4.60793L73.4121 4.48788L73.3146 4.41751L73.1683 4.62019ZM73.1742 4.74024L72.9245 4.7525V4.7525L73.1742 4.74024ZM73.2346 5.97057L72.9849 5.98283V5.98284L73.2346 5.97057ZM73.2352 5.98283V6.23283H73.4978L73.4849 5.97056L73.2352 5.98283ZM73.2349 5.98283V5.73283H72.9849V5.98283H73.2349ZM71.8967 15.2763L72.1379 15.3422V15.3422L71.8967 15.2763ZM71.8464 15.4603V15.7103H72.0372L72.0875 15.5263L71.8464 15.4603ZM65.9542 15.4603L65.7096 15.5118L65.7514 15.7103H65.9542V15.4603ZM65.9125 15.2618L65.6678 15.3133V15.3133L65.9125 15.2618ZM64.4891 8.49946L64.7338 8.44797L64.7069 8.32005L64.5865 8.26917L64.4891 8.49946ZM55.105 6.60193L55.105 6.3517L55.0944 6.35216L55.105 6.60193ZM53.7357 6.66002L53.7251 6.41024L53.6491 6.41347L53.5878 6.45848L53.7357 6.66002ZM49.1706 12.9606L48.9366 12.8727L49.1706 12.9606ZM50.978 33.2365L51.1765 33.0845L50.978 33.2365ZM59.6946 37.6599L59.6975 37.4099H59.6974L59.6946 37.6599ZM59.6996 37.6599L59.9493 37.6703L59.9601 37.413L59.7025 37.41L59.6996 37.6599ZM59.6996 37.66L59.4498 37.6496L59.4392 37.9021L59.6918 37.9099L59.6996 37.66ZM64.6986 37.2062L64.7395 37.4528L64.9486 37.4182V37.2062H64.6986ZM64.6986 29.103H64.9486V28.9288L64.7853 28.8685L64.6986 29.103ZM58.7837 26.3781L58.9063 26.1602H58.9063L58.7837 26.3781ZM58.6299 26.2914L58.3835 26.2487L58.3534 26.4227L58.5072 26.5093L58.6299 26.2914ZM58.66 26.1175L58.9063 26.1602L58.66 26.1175ZM59.0226 24.026L59.2689 24.0687V24.0687L59.0226 24.026ZM59.0585 23.8187V23.5687H58.8481L58.8122 23.776L59.0585 23.8187ZM78.1845 23.8187L78.4345 23.8136L78.4295 23.5687H78.1845V23.8187ZM78.1895 24.0636L77.9396 24.0687V24.0687L78.1895 24.0636ZM78.2499 27.0163L78 27.0215L78.2499 27.0163ZM78.2542 27.2227L78.3066 27.4671L78.5083 27.4239L78.5041 27.2175L78.2542 27.2227ZM78.0524 27.2659L78 27.0215L78.0524 27.2659ZM73.6579 28.2078L73.6055 27.9634L73.4079 28.0057V28.2078H73.6579ZM73.6579 38.6288L73.7557 38.8589L73.9079 38.7942V38.6288H73.6579ZM73.5057 38.6936L73.6036 38.9236L73.5057 38.6936ZM60.6356 44.1685L60.7335 44.3986L60.7335 44.3986L60.6356 44.1685ZM60.5928 44.1868L60.6013 44.4366L60.6478 44.435L60.6906 44.4168L60.5928 44.1868ZM60.5462 44.1883L60.5547 44.4382L60.5462 44.1883ZM58.7336 44.2499L58.7251 44H58.725L58.7336 44.2499ZM58.7251 44.2501H58.4751V44.5088L58.7336 44.5L58.7251 44.2501ZM58.7251 44.25H58.9751V44H58.7251V44.25ZM48.7539 42.2389L48.8618 42.0133L48.7539 42.2389ZM47.1199 41.3447L46.9879 41.557L46.9879 41.557L47.1199 41.3447ZM47.0019 41.2713H46.7519V41.4103L46.8699 41.4837L47.0019 41.2713ZM47.0019 39.8082H47.2519V39.5922L47.0382 39.5609L47.0019 39.8082ZM44.3674 39.4181L44.4042 39.1708L44.3674 39.4181ZM43.334 39.2638L43.2969 39.5111L43.297 39.5111L43.334 39.2638ZM43.0354 39.2191L42.9984 39.4664L42.9984 39.4664L43.0354 39.2191ZM42.9557 39.2072L42.9187 39.4545H42.9187L42.9557 39.2072ZM42.9352 39.2041L42.8982 39.4514L42.8982 39.4514L42.9352 39.2041ZM42.93 39.2034L42.8927 39.4506L42.8929 39.4506L42.93 39.2034ZM42.9287 39.2032L42.9659 38.9559L42.9658 38.9559L42.9287 39.2032ZM42.9283 39.2031L42.9654 38.9559L42.9623 38.9554L42.9283 39.2031ZM42.9283 39.2031L42.8912 39.4503L42.8943 39.4508L42.9283 39.2031ZM42.7872 39.1819L42.5556 39.2759L42.6092 39.408L42.7502 39.4292L42.7872 39.1819ZM42.7336 39.0498L42.6397 38.8182L42.408 38.9122L42.502 39.1438L42.7336 39.0498ZM42.9653 38.9558L43.0593 39.1875L42.8713 38.7242L42.9653 38.9558ZM42.7336 39.0498L42.502 39.1439L42.596 39.3754L42.8276 39.2815L42.7336 39.0498ZM42.7336 39.0497L42.5019 39.1436L42.502 39.1438L42.7336 39.0497ZM42.7335 39.0494L42.9652 38.9556L42.9651 38.9554L42.7335 39.0494ZM42.733 39.0482L42.5013 39.1422L42.5013 39.1423L42.733 39.0482ZM42.7311 39.0435L42.4994 39.1375L42.4994 39.1375L42.7311 39.0435ZM42.7236 39.0252L42.4919 39.1191L42.492 39.1191L42.7236 39.0252ZM42.6953 38.9553L42.4636 39.049L42.4636 39.0491L42.6953 38.9553ZM42.593 38.7026L42.3613 38.7963L42.3613 38.7964L42.593 38.7026ZM42.2727 37.9083L42.0408 38.0015L42.2727 37.9083ZM41.6986 36.4543L41.9337 36.3692V36.3692L41.6986 36.4543ZM39.985 32.1565L39.7529 32.2494L39.7529 32.2494L39.985 32.1565ZM39.7894 31.668L39.5574 31.7609V31.7609L39.7894 31.668ZM38.5443 28.5537L38.7766 28.4611L38.5443 28.5537ZM38.135 27.5228L37.9024 27.6145L38.135 27.5228ZM38.0189 27.2261L38.2522 27.1361V27.1361L38.0189 27.2261ZM37.9868 27.1415L38.2212 27.0547L38.2212 27.0547L37.9868 27.1415ZM37.9766 27.1133L37.7403 27.1948L37.7403 27.1948L37.9766 27.1133ZM37.9718 27.0987L38.2107 27.0251L38.2099 27.0224L37.9718 27.0987ZM37.9718 27.0987L37.7337 27.175L37.7338 27.175L37.9718 27.0987ZM37.9628 27.06L37.7157 27.0985L37.9628 27.06ZM40.3446 12.2067L40.568 12.319L40.3446 12.2067ZM43.4079 38.7693L43.3709 39.0166L43.3709 39.0166L43.4079 38.7693ZM43.1434 38.7297L42.9117 38.8235L42.9652 38.9559L43.1064 38.977L43.1434 38.7297ZM44.441 38.9235L44.4042 39.1708L44.441 38.9235ZM47.2881 39.3449L47.2519 39.5922H47.2519L47.2881 39.3449ZM47.5019 39.3762H47.7519V39.1601L47.5381 39.1288L47.5019 39.3762ZM47.5019 40.9927H47.2519V41.1331L47.3717 41.2062L47.5019 40.9927ZM48.9697 41.7878L48.8618 42.0133L48.9697 41.7878ZM58.7209 43.75L58.7208 44.0001L58.7294 43.9999L58.7209 43.75ZM60.4827 43.6902L60.4912 43.9401L60.5378 43.9385L60.5806 43.9203L60.4827 43.6902ZM73.1579 38.2982L73.2557 38.5282L73.4079 38.4635V38.2982H73.1579ZM73.1579 27.8036L73.1055 27.5592L72.9079 27.6015V27.8036H73.1579ZM73.3555 27.7613L73.3031 27.5168L73.3555 27.7613ZM77.7458 26.8203L77.7982 27.0647L78 27.0215L77.9958 26.8151L77.7458 26.8203ZM77.6946 24.3187L77.9446 24.3136L77.9396 24.0687H77.6946V24.3187ZM59.4793 24.3187V24.0687H59.2689L59.2329 24.276L59.4793 24.3187ZM59.1829 26.0286L58.9366 25.9859L58.9063 26.1607L59.0612 26.247L59.1829 26.0286ZM65.0344 28.6936L64.9486 28.9285V28.9285L65.0344 28.6936ZM65.1986 28.7536H65.4486V28.5787L65.2844 28.5187L65.1986 28.7536ZM65.1986 37.6289L65.2405 37.8754L65.4486 37.84V37.6289H65.1986ZM64.9905 37.6642L64.9486 37.4177L64.9905 37.6642ZM59.6866 38.1598L59.6942 37.9099L59.6894 37.9098L59.6866 38.1598ZM50.5809 33.5404L50.3824 33.6923L50.5809 33.5404ZM48.7025 12.7848L48.9366 12.8727L48.7025 12.7848ZM53.5029 6.21099L53.3562 6.00853L53.5029 6.21099ZM53.5638 6.16686L53.5532 5.91709L53.4781 5.92027L53.4171 5.9644L53.5638 6.16686ZM53.639 6.16367L53.6284 5.9139L53.639 6.16367ZM55.0891 6.10216L55.0997 6.35193L55.0997 6.35193L55.0891 6.10216ZM55.0997 6.10171H55.3497V5.84087L55.0891 5.85193L55.0997 6.10171ZM55.0997 6.10193H54.8497V6.35193H55.0997V6.10193ZM64.8055 8.09068L64.9039 7.8609L64.8055 8.09068ZM64.9248 8.14186L65.1695 8.09037L65.1427 7.96326L65.0233 7.91208L64.9248 8.14186ZM64.9516 8.26897L65.1962 8.21748V8.21747L64.9516 8.26897ZM66.36 14.9603L66.1153 15.0118L66.1571 15.2103H66.36V14.9603ZM71.4644 14.9603V15.2103H71.656L71.7058 15.0252L71.4644 14.9603ZM72.7349 5.98895L72.9852 5.989L72.9846 5.97668L72.7349 5.98895ZM72.6807 4.88533L72.9304 4.87306L72.9244 4.75199L72.8257 4.68168L72.6807 4.88533ZM48.2531 4.31875L48.1208 4.10658L48.2531 4.31875ZM40.7913 12.4314L40.568 12.319L40.7913 12.4314ZM38.4535 26.962L38.2065 27.0001L38.2102 27.0242L38.2185 27.0471L38.4535 26.962ZM38.4557 26.9679L38.2206 27.053L38.2212 27.0547L38.4557 26.9679ZM38.4854 27.0462L38.2522 27.1361L38.4854 27.0462ZM38.6002 27.3394L38.3676 27.4311L38.6002 27.3394ZM39.0088 28.3686L39.241 28.276L39.0088 28.3686ZM40.2536 31.4821L40.0215 31.5751V31.5751L40.2536 31.4821ZM40.4645 32.009L40.2324 32.1019L40.4645 32.009ZM42.1687 36.2841L42.4038 36.199V36.199L42.1687 36.2841ZM42.7367 37.7218L42.9686 37.6286L42.7367 37.7218ZM43.0566 38.5152L42.8248 38.6089L42.8248 38.609L43.0566 38.5152ZM38.4478 26.9455L38.6658 26.8233L38.6657 26.8231L38.4478 26.9455ZM38.4493 26.9503L38.213 27.0318L38.6887 26.8781L38.4493 26.9503ZM27.5463 0.811786L27.4627 0.606026L26.9995 0.79424L27.0831 1L27.5463 0.811786ZM43.031 38.9218L27.5463 0.811786L27.0831 1L42.5678 39.11L43.031 38.9218ZM47.0696 39.3641L42.8342 38.7683L42.7646 39.2635L47 39.8592L47.0696 39.3641ZM47.2891 39.395L47.0696 39.3641L47 39.8592L47.2195 39.8901L47.2891 39.395ZM47.4999 39.8691L47.5043 39.6475L47.0044 39.6376L47 39.8592L47.4999 39.8691ZM47.4382 43.0098L47.4999 39.869L47 39.8592L46.9383 43L47.4382 43.0098ZM47.4334 43.2549L47.4382 43.0098L46.9383 43L46.9335 43.2451L47.4334 43.2549ZM46.9383 43.5H47.1835V43H46.9383V43.5ZM27.5147 43.5H46.9383V43H27.5147V43.5ZM27.3073 43.5H27.5147V43H27.3073V43.5ZM27.0233 43.0923L27.0616 43.2961L27.553 43.2039L27.5147 43L27.0233 43.0923ZM26.6534 41.1216L27.0233 43.0923L27.5147 43L27.1448 41.0293L26.6534 41.1216ZM27.0986 40.7836L26.8529 40.8297L26.9452 41.3212L27.1909 41.275L27.0986 40.7836ZM26.8014 40.9452L26.931 41.159L27.3585 40.8997L27.2289 40.6859L26.8014 40.9452ZM32.0904 38.0775C29.7721 39.0649 28.032 39.9066 26.8855 40.6018L27.1448 41.0293C28.2601 40.3531 29.9738 39.5224 32.2864 38.5375L32.0904 38.0775ZM29.5157 32.1325L31.9554 38.3982L32.4214 38.2168L29.9816 31.9511L29.5157 32.1325ZM15.4175 32.2918H29.7486V31.7918H15.4175V32.2918ZM13.1081 38.942L15.6517 32.1292L15.1833 31.9543L12.6397 38.7671L13.1081 38.942ZM18.2736 39.3641L12.9088 38.607L12.8389 39.1021L18.2038 39.8592L18.2736 39.3641ZM18.493 39.3951L18.2736 39.3641L18.2038 39.8592L18.4231 39.8902L18.493 39.3951ZM18.7037 39.869L18.708 39.6476L18.2081 39.6377L18.2038 39.8592L18.7037 39.869ZM18.642 43.0098L18.7037 39.869L18.2038 39.8592L18.1421 43L18.642 43.0098ZM18.6372 43.2549L18.642 43.0098L18.1421 43L18.1373 43.2451L18.6372 43.2549ZM18.1421 43.5H18.3872V43H18.1421V43.5ZM1.36997 43.5H18.1421V43H1.36997V43.5ZM1.16254 43.5H1.36997V43H1.16254V43.5ZM0.878558 43.0923L0.916833 43.2961L1.40825 43.2039L1.36997 43L0.878558 43.0923ZM0.508585 41.1216L0.878558 43.0923L1.36997 43L1 41.0293L0.508585 41.1216ZM0.953873 40.7836L0.708165 40.8297L0.80042 41.3212L1.04613 41.275L0.953873 40.7836ZM0.655077 40.9517L0.788718 41.163L1.21128 40.8957L1.07764 40.6844L0.655077 40.9517ZM5.83428 38.1406C3.68872 38.9941 1.984 39.8153 0.732718 40.6068L1 41.0293C2.21446 40.2612 3.88746 39.4531 6.01908 38.6052L5.83428 38.1406ZM19.2448 5.02944L5.69517 38.2786L6.15819 38.4673L19.7078 5.21813L19.2448 5.02944ZM18.5392 3.39771L19.2432 5.21413L19.7094 5.03344L19.0054 3.21701L18.5392 3.39771ZM18.4391 3.13955L18.5392 3.39771L19.0054 3.21701L18.9053 2.95885L18.4391 3.13955ZM18.873 2.73484L18.606 2.80812L18.7384 3.29029L19.0054 3.21701L18.873 2.73484ZM26.9508 0.517831L18.873 2.73484L19.0054 3.21701L27.0831 1L26.9508 0.517831ZM27.165 0.459048L26.9508 0.517831L27.0831 1L27.2973 0.941218L27.165 0.459048ZM1.82311 42.7039L1.52291 41.1048L1.03149 41.1971L1.3317 42.7961L1.82311 42.7039ZM17.897 42.5H1.57741V43H17.897V42.5ZM17.6995 40.0709L17.647 42.7451L18.1469 42.7549L18.1994 40.0807L17.6995 40.0709ZM12.461 39.5537L17.9145 40.3234L17.9844 39.8283L12.5308 39.0587L12.461 39.5537ZM12.1529 39.5103L12.461 39.5537L12.5308 39.0587L12.2227 39.0152L12.1529 39.5103ZM12.0624 38.8838L11.9536 39.1753L12.422 39.3502L12.5308 39.0587L12.0624 38.8838ZM14.7756 31.6169L12.0624 38.8838L12.5308 39.0587L15.244 31.7918L14.7756 31.6169ZM14.8362 31.4543L14.7756 31.6169L15.244 31.7918L15.3047 31.6292L14.8362 31.4543ZM15.244 31.2918H15.0705V31.7918H15.244V31.2918ZM29.9196 31.2918H15.244V31.7918H29.9196V31.2918ZM30.0905 31.2918H29.9196V31.7918H30.0905V31.2918ZM30.3855 31.6104L30.3235 31.4511L29.8575 31.6325L29.9196 31.7918L30.3855 31.6104ZM32.9753 38.2614L30.3855 31.6104L29.9196 31.7918L32.5094 38.4428L32.9753 38.2614ZM33.0634 38.4877L32.9753 38.2614L32.5094 38.4428L32.5975 38.6691L33.0634 38.4877ZM32.7042 38.9033L32.9279 38.8086L32.733 38.3482L32.5094 38.4428L32.7042 38.9033ZM27.5498 41.3697C28.6742 40.7055 30.3876 39.8837 32.7042 38.9033L32.5094 38.4428C30.1867 39.4257 28.4489 40.2579 27.2955 40.9392L27.5498 41.3697ZM27.9679 42.7039L27.6683 41.1083L27.1769 41.2005L27.4765 42.7961L27.9679 42.7039ZM46.6932 42.5H27.7222V43H46.6932V42.5ZM46.4958 40.071L46.4432 42.7451L46.9431 42.7549L46.9957 40.0808L46.4958 40.071ZM42.5523 39.7385L46.7109 40.3235L46.7805 39.8284L42.622 39.2434L42.5523 39.7385ZM42.4097 39.7185L42.5523 39.7385L42.622 39.2434L42.4794 39.2233L42.4097 39.7185ZM42.1588 39.4316L42.213 39.565L42.6762 39.3768L42.622 39.2434L42.1588 39.4316ZM26.7035 1.39397L42.1588 39.4316L42.622 39.2434L27.1667 1.20576L26.7035 1.39397ZM19.4047 3.6259L27.0013 1.54095L26.8689 1.05878L19.2724 3.14373L19.4047 3.6259ZM20.2115 4.9454L19.5716 3.29447L19.1054 3.47516L19.7453 5.1261L20.2115 4.9454ZM20.2474 5.03807L20.2115 4.9454L19.7453 5.1261L19.7812 5.21876L20.2474 5.03807ZM20.2083 5.31479L20.2458 5.22276L19.7828 5.03407L19.7453 5.1261L20.2083 5.31479ZM6.58099 38.7547L20.2083 5.31479L19.7453 5.1261L6.11796 38.566L6.58099 38.7547ZM6.54071 38.8535L6.58099 38.7547L6.11796 38.566L6.07768 38.6648L6.54071 38.8535ZM6.30194 39.0309L6.40118 38.9916L6.21721 38.5267L6.11796 38.566L6.30194 39.0309ZM1.40843 41.3637C2.59394 40.6326 4.22131 39.8543 6.30194 39.0309L6.11796 38.566C4.02358 39.3948 2.36633 40.1855 1.14597 40.9382L1.40843 41.3637ZM22.9654 12.8172L22.7327 12.2249L22.2673 12.4077L22.5 13L22.9654 12.8172ZM28.4654 26.8172L22.9654 12.8172L22.5 13L28 27L28.4654 26.8172ZM28.5995 27.1586L28.4654 26.8172L28 27L28.1341 27.3414L28.5995 27.1586ZM28 27.5H28.3668V27H28V27.5ZM17 27.5H28V27H17V27.5ZM16.6332 27.5H17V27H16.6332V27.5ZM16.5346 26.8172L16.4005 27.1586L16.8659 27.3414L17 27L16.5346 26.8172ZM22.0346 12.8172L16.5346 26.8172L17 27L22.5 13L22.0346 12.8172ZM22.2673 12.2249L22.0346 12.8172L22.5 13L22.7327 12.4077L22.2673 12.2249ZM27.6332 26.5H17.3668V27H27.6332V26.5ZM22.2673 13.7751L27.4005 26.8414L27.8659 26.6586L22.7327 13.5923L22.2673 13.7751ZM17.5995 26.8414L22.7327 13.7751L22.2673 13.5923L17.1341 26.6586L17.5995 26.8414ZM60.0544 0.5C55.3458 0.5 51.2725 1.55331 47.8564 3.68224L48.1208 4.10658C51.4441 2.03553 55.422 1 60.0544 1V0.5ZM73.2172 4.34715C69.652 1.77258 65.2541 0.5 60.0544 0.5V1C65.1702 1 69.4602 2.25084 72.9245 4.7525L73.2172 4.34715ZM73.3146 4.41751L73.2172 4.34715L72.9245 4.7525L73.0219 4.82287L73.3146 4.41751ZM73.4239 4.72798L73.418 4.60793L72.9186 4.63245L72.9245 4.7525L73.4239 4.72798ZM73.4843 5.95831L73.4239 4.72798L72.9245 4.7525L72.9849 5.98283L73.4843 5.95831ZM73.4849 5.97056L73.4843 5.9583L72.9849 5.98284L72.9855 5.99511L73.4849 5.97056ZM73.2349 6.23283H73.2352V5.73283H73.2349V6.23283ZM72.1379 15.3422C73.0341 12.0658 73.4849 8.94539 73.4849 5.98283H72.9849C72.9849 8.89461 72.5418 11.9704 71.6556 15.2103L72.1379 15.3422ZM72.0875 15.5263L72.1379 15.3422L71.6556 15.2103L71.6052 15.3943L72.0875 15.5263ZM71.6556 15.7103H71.8464V15.2103H71.6556V15.7103ZM66.1571 15.7103H71.6556V15.2103H66.1571V15.7103ZM65.9542 15.7103H66.1571V15.2103H65.9542V15.7103ZM65.6678 15.3133L65.7096 15.5118L66.1989 15.4088L66.1571 15.2103L65.6678 15.3133ZM64.2445 8.55095L65.6678 15.3133L66.1571 15.2103L64.7338 8.44797L64.2445 8.55095ZM55.1049 6.85193C58.336 6.85261 61.4303 7.47839 64.3918 8.72975L64.5865 8.26917C61.5631 6.99169 58.4026 6.35262 55.105 6.35193L55.1049 6.85193ZM53.7463 6.90979L55.1156 6.85171L55.0944 6.35216L53.7251 6.41024L53.7463 6.90979ZM49.4046 13.0485C50.4128 10.364 51.9094 8.31069 53.8836 6.86155L53.5878 6.45848C51.5239 7.9734 49.9735 10.1115 48.9366 12.8727L49.4046 13.0485ZM47.8656 22.0386C47.8656 18.7699 48.3807 15.7749 49.4046 13.0485L48.9366 12.8727C47.8892 15.6614 47.3656 18.7167 47.3656 22.0386H47.8656ZM51.1765 33.0845C48.9813 30.2167 47.8656 26.5475 47.8656 22.0386H47.3656C47.3656 26.6319 48.5035 30.4151 50.7795 33.3884L51.1765 33.0845ZM59.6974 37.4099C56.1893 37.3707 53.3613 35.9388 51.1765 33.0845L50.7795 33.3884C53.0554 36.3617 56.0262 37.8689 59.6918 37.9099L59.6974 37.4099ZM59.7025 37.41L59.6975 37.4099L59.6917 37.9099L59.6966 37.9099L59.7025 37.41ZM59.9493 37.6704V37.6703L59.4498 37.6495L59.4498 37.6496L59.9493 37.6704ZM64.6578 36.9595C62.5939 37.3015 60.9475 37.4484 59.7073 37.4101L59.6918 37.9099C60.9785 37.9496 62.6611 37.7972 64.7395 37.4528L64.6578 36.9595ZM64.4486 29.103V37.2062H64.9486V29.103H64.4486ZM58.661 26.5959C60.53 27.6485 62.5138 28.5623 64.612 29.3375L64.7853 28.8685C62.7109 28.102 60.7512 27.1993 58.9063 26.1602L58.661 26.5959ZM58.5072 26.5093L58.661 26.5959L58.9063 26.1602L58.7526 26.0736L58.5072 26.5093ZM58.4137 26.0748L58.3835 26.2487L58.8762 26.3341L58.9063 26.1602L58.4137 26.0748ZM58.7762 23.9833L58.4137 26.0748L58.9063 26.1602L59.2689 24.0687L58.7762 23.9833ZM58.8122 23.776L58.7762 23.9833L59.2689 24.0687L59.3048 23.8614L58.8122 23.776ZM59.2689 23.5687H59.0585V24.0687H59.2689V23.5687ZM77.9396 23.5687H59.2689V24.0687H77.9396V23.5687ZM78.1845 23.5687H77.9396V24.0687H78.1845V23.5687ZM78.4395 24.0584L78.4345 23.8136L77.9346 23.8238L77.9396 24.0687L78.4395 24.0584ZM78.4999 27.0112L78.4395 24.0584L77.9396 24.0687L78 27.0215L78.4999 27.0112ZM78.5041 27.2175L78.4999 27.0112L78 27.0215L78.0042 27.2278L78.5041 27.2175ZM78.1048 27.5104L78.3066 27.4671L78.2018 26.9782L78 27.0215L78.1048 27.5104ZM73.7103 28.4523L78.1048 27.5104L78 27.0215L73.6055 27.9634L73.7103 28.4523ZM73.9079 38.4635V28.2078H73.4079V38.4635H73.9079ZM73.9079 38.6288V38.4635H73.4079V38.6288H73.9079ZM73.6036 38.9236L73.7557 38.8589L73.56 38.3988L73.4079 38.4635L73.6036 38.9236ZM60.7335 44.3986L73.6036 38.9236L73.4079 38.4635L60.5378 43.9385L60.7335 44.3986ZM60.6906 44.4168L60.7335 44.3986L60.5378 43.9385L60.4949 43.9567L60.6906 44.4168ZM60.5547 44.4382L60.6013 44.4366L60.5843 43.9369L60.5378 43.9385L60.5547 44.4382ZM58.742 44.4997L60.5547 44.4382L60.5378 43.9385L58.7251 44L58.742 44.4997ZM58.7336 44.5L58.7421 44.4997L58.725 44L58.7165 44.0003L58.7336 44.5ZM58.4751 44.25V44.2501H58.9751V44.25H58.4751ZM48.6461 42.4644C51.4963 43.8278 54.8611 44.5 58.7251 44.5V44C54.9183 44 51.6305 43.3378 48.8618 42.0133L48.6461 42.4644ZM46.9879 41.557C47.5193 41.8874 48.0721 42.1898 48.6461 42.4644L48.8618 42.0133C48.3041 41.7466 47.7675 41.4529 47.2519 41.1324L46.9879 41.557ZM46.8699 41.4837L46.9879 41.557L47.2519 41.1324L47.1339 41.059L46.8699 41.4837ZM46.7519 41.1324V41.2713H47.2519V41.1324H46.7519ZM46.7519 39.8082V41.1324H47.2519V39.8082H46.7519ZM44.3305 39.6653C45.1047 39.7807 46.0799 39.9255 46.9656 40.0556L47.0382 39.5609C46.153 39.4309 45.1782 39.2861 44.4042 39.1708L44.3305 39.6653ZM43.297 39.5111C43.5522 39.5492 43.912 39.603 44.3305 39.6653L44.4042 39.1708C43.9858 39.1085 43.626 39.0547 43.3709 39.0166L43.297 39.5111ZM42.9984 39.4664L43.2969 39.5111L43.371 39.0166L43.0724 38.9719L42.9984 39.4664ZM42.9187 39.4545L42.9984 39.4664L43.0724 38.9719L42.9928 38.96L42.9187 39.4545ZM42.8982 39.4514L42.9187 39.4545L42.9928 38.96L42.9722 38.9569L42.8982 39.4514ZM42.8929 39.4506L42.8982 39.4514L42.9723 38.9569L42.967 38.9561L42.8929 39.4506ZM42.8914 39.4504L42.8927 39.4506L42.9673 38.9561L42.9659 38.9559L42.8914 39.4504ZM42.8912 39.4503L42.8916 39.4504L42.9658 38.9559L42.9654 38.9559L42.8912 39.4503ZM42.8943 39.4508L42.8944 39.4508L42.9623 38.9554L42.9622 38.9554L42.8943 39.4508ZM42.7502 39.4292L42.8912 39.4503L42.9653 38.9559L42.8243 38.9347L42.7502 39.4292ZM42.502 39.1438L42.5556 39.2759L43.0189 39.088L42.9653 38.9558L42.502 39.1438ZM42.8713 38.7242L42.6397 38.8182L42.8276 39.2815L43.0593 39.1875L42.8713 38.7242ZM42.8276 39.2815L43.0593 39.1875L42.8713 38.7242L42.6397 38.8181L42.8276 39.2815ZM42.502 39.1438L42.502 39.1439L42.9652 38.9557L42.9652 38.9556L42.502 39.1438ZM42.5018 39.1433L42.5019 39.1436L42.9653 38.9559L42.9652 38.9556L42.5018 39.1433ZM42.5013 39.1423L42.5018 39.1434L42.9651 38.9554L42.9646 38.9542L42.5013 39.1423ZM42.4994 39.1375L42.5013 39.1422L42.9646 38.9543L42.9627 38.9496L42.4994 39.1375ZM42.492 39.1191L42.4994 39.1375L42.9628 38.9496L42.9553 38.9313L42.492 39.1191ZM42.4636 39.0491L42.4919 39.1191L42.9553 38.9313L42.927 38.8614L42.4636 39.0491ZM42.3613 38.7964L42.4636 39.049L42.927 38.8615L42.8248 38.6088L42.3613 38.7964ZM42.0408 38.0015C42.1607 38.2999 42.276 38.5854 42.3613 38.7963L42.8248 38.6089C42.7396 38.3982 42.6245 38.113 42.5047 37.8151L42.0408 38.0015ZM41.4635 36.5394C41.541 36.7532 41.8033 37.4107 42.0408 38.0015L42.5047 37.8151C42.2652 37.2192 42.0073 36.5726 41.9337 36.3692L41.4635 36.5394ZM39.7529 32.2494C40.5998 34.3647 41.3988 36.3607 41.4635 36.5394L41.9337 36.3692C41.8652 36.18 41.0603 34.1696 40.2171 32.0636L39.7529 32.2494ZM39.5574 31.7609L39.7529 32.2494L40.2171 32.0636L40.0215 31.5751L39.5574 31.7609ZM38.3121 28.6463C38.6505 29.4953 39.1019 30.6233 39.5574 31.7609L40.0215 31.5751C39.5661 30.4374 39.1148 29.3097 38.7766 28.4611L38.3121 28.6463ZM37.9024 27.6145C38.0018 27.8666 38.1429 28.2218 38.3121 28.6463L38.7766 28.4611C38.6075 28.0368 38.4666 27.6823 38.3676 27.4311L37.9024 27.6145ZM37.7857 27.316C37.8132 27.3875 37.8528 27.4886 37.9024 27.6145L38.3676 27.4311C38.3181 27.3056 38.2791 27.2058 38.2522 27.1361L37.7857 27.316ZM37.7523 27.2282C37.7606 27.2508 37.772 27.2806 37.7857 27.316L38.2522 27.1361C38.2387 27.1013 38.2284 27.074 38.2212 27.0547L37.7523 27.2282ZM37.7403 27.1948C37.744 27.2056 37.7483 27.2173 37.7523 27.2283L38.2212 27.0547C38.2176 27.0451 38.2149 27.0374 38.213 27.0318L37.7403 27.1948ZM37.7329 27.1724C37.7358 27.1816 37.7385 27.1896 37.7403 27.1948L38.213 27.0318C38.212 27.0291 38.2113 27.0268 38.2107 27.0251L37.7329 27.1724ZM37.7338 27.175L37.7338 27.1751L38.2099 27.0224L38.2099 27.0223L37.7338 27.175ZM37.7157 27.0985C37.7219 27.138 37.732 27.1695 37.7337 27.175L38.2099 27.0223L38.2098 27.0215L37.7157 27.0985ZM37.5 23.269C37.5 24.5243 37.5193 25.8393 37.7157 27.0985L38.2098 27.0215C38.0199 25.8045 38 24.524 38 23.269H37.5ZM40.1213 12.0944C38.3734 15.5696 37.5 19.2967 37.5 23.269H38C38 19.3729 38.856 15.7229 40.568 12.319L40.1213 12.0944ZM47.8564 3.68224C44.4575 5.80044 41.8757 8.60607 40.1213 12.0944L40.568 12.319C42.28 8.91512 44.7976 6.17764 48.1208 4.10658L47.8564 3.68224ZM43.4449 38.5221L43.1804 38.4825L43.1064 38.977L43.3709 39.0166L43.4449 38.5221ZM44.4779 38.6763C44.0596 38.6139 43.6999 38.5602 43.4449 38.5221L43.3709 39.0166C43.626 39.0547 43.9858 39.1085 44.4042 39.1708L44.4779 38.6763ZM47.3244 39.0975C46.3858 38.9599 45.3146 38.8009 44.4779 38.6763L44.4042 39.1708C45.241 39.2955 46.3127 39.4546 47.2519 39.5922L47.3244 39.0975ZM47.5381 39.1288L47.3244 39.0975L47.2519 39.5922L47.4656 39.6235L47.5381 39.1288ZM47.7519 39.5922V39.3762H47.2519V39.5922H47.7519ZM47.7519 40.9927V39.5922H47.2519V40.9927H47.7519ZM49.0776 41.5623C48.5779 41.3233 48.0961 41.0623 47.632 40.7793L47.3717 41.2062C47.8505 41.4981 48.3472 41.7672 48.8618 42.0133L49.0776 41.5623ZM58.7209 43.5C54.9731 43.4995 51.7637 42.8472 49.0776 41.5623L48.8618 42.0133C51.6295 43.3373 54.9158 43.9995 58.7208 44L58.7209 43.5ZM60.4743 43.4404L58.7124 43.5001L58.7294 43.9999L60.4912 43.9401L60.4743 43.4404ZM73.06 38.0681L60.3849 43.4602L60.5806 43.9203L73.2557 38.5282L73.06 38.0681ZM72.9079 28.0057V38.2982H73.4079V28.0057H72.9079ZM72.9079 27.8036V28.0057H73.4079V27.8036H72.9079ZM73.3031 27.5168L73.1055 27.5592L73.2103 28.0481L73.4079 28.0057L73.3031 27.5168ZM77.6934 26.5758L73.3031 27.5168L73.4079 28.0057L77.7982 27.0647L77.6934 26.5758ZM77.4447 24.3238L77.4959 26.8254L77.9958 26.8151L77.9446 24.3136L77.4447 24.3238ZM59.4793 24.5687H77.6946V24.0687H59.4793V24.5687ZM59.4292 26.0713L59.7256 24.3614L59.2329 24.276L58.9366 25.9859L59.4292 26.0713ZM65.1201 28.4588C63.0669 27.7094 61.1286 26.8264 59.3046 25.8102L59.0612 26.247C60.9093 27.2766 62.8718 28.1705 64.9486 28.9285L65.1201 28.4588ZM65.2844 28.5187L65.1201 28.4588L64.9486 28.9285L65.1129 28.9884L65.2844 28.5187ZM65.4486 28.9285V28.7536H64.9486V28.9285H65.4486ZM65.4486 37.4177V28.9285H64.9486V37.4177H65.4486ZM65.4486 37.6289V37.4177H64.9486V37.6289H65.4486ZM65.0323 37.9107L65.2405 37.8754L65.1568 37.3824L64.9486 37.4177L65.0323 37.9107ZM59.6789 38.4097C61.0555 38.4519 62.844 38.282 65.0323 37.9107L64.9486 37.4177C62.7747 37.7866 61.0233 37.9507 59.6942 37.9099L59.6789 38.4097ZM50.3824 33.6923C52.7489 36.7839 55.8617 38.3664 59.6837 38.4098L59.6894 37.9098C56.0249 37.8682 53.0549 36.3611 50.7795 33.3884L50.3824 33.6923ZM46.8656 22.0386C46.8656 26.7162 48.0257 30.6135 50.3824 33.6923L50.7795 33.3884C48.5035 30.4151 47.3656 26.6319 47.3656 22.0386H46.8656ZM48.4685 12.6969C47.3977 15.5479 46.8656 18.6636 46.8656 22.0386H47.3656C47.3656 18.7167 47.8892 15.6614 48.9366 12.8727L48.4685 12.6969ZM53.3562 6.00853C51.1705 7.59187 49.5449 9.83059 48.4685 12.6969L48.9366 12.8727C49.9839 10.0839 51.5549 7.93085 53.6495 6.41345L53.3562 6.00853ZM53.4171 5.9644L53.3562 6.00853L53.6495 6.41345L53.7105 6.36932L53.4171 5.9644ZM53.6284 5.9139L53.5532 5.91709L53.5744 6.41664L53.6495 6.41345L53.6284 5.9139ZM55.0785 5.85238L53.6284 5.9139L53.6495 6.41345L55.0997 6.35193L55.0785 5.85238ZM55.0891 5.85193L55.0785 5.85238L55.0997 6.35193L55.1103 6.35148L55.0891 5.85193ZM55.3497 6.10193V6.10171H54.8497V6.10193H55.3497ZM64.9039 7.8609C61.78 6.52176 58.5106 5.85193 55.0997 5.85193V6.35193C58.4431 6.35193 61.6455 7.00811 64.7069 8.32046L64.9039 7.8609ZM65.0233 7.91208L64.9039 7.8609L64.7069 8.32046L64.8263 8.37164L65.0233 7.91208ZM65.1962 8.21747L65.1695 8.09037L64.6802 8.19335L64.707 8.32046L65.1962 8.21747ZM66.6046 14.9088L65.1962 8.21748L64.707 8.32046L66.1153 15.0118L66.6046 14.9088ZM71.4644 14.7103H66.36V15.2103H71.4644V14.7103ZM72.4849 5.98889C72.4843 8.79357 72.0653 11.7618 71.2229 14.8954L71.7058 15.0252C72.5579 11.8555 72.9843 8.84345 72.9849 5.989L72.4849 5.98889ZM72.431 4.89759L72.4852 6.00121L72.9846 5.97668L72.9304 4.87306L72.431 4.89759ZM60.0544 1.5C65.0386 1.5 69.189 2.7059 72.5357 5.08897L72.8257 4.68168C69.3787 2.22717 65.1216 1 60.0544 1V1.5ZM48.3853 4.53092C51.6157 2.51774 55.4981 1.5 60.0544 1.5V1C55.422 1 51.4441 2.03553 48.1208 4.10658L48.3853 4.53092ZM41.0147 12.5437C42.6842 9.22416 45.1377 6.55483 48.3853 4.53092L48.1208 4.10658C44.7976 6.17764 42.28 8.91512 40.568 12.319L41.0147 12.5437ZM38.5 23.269C38.5 19.4491 39.3385 15.8763 41.0147 12.5437L40.568 12.319C38.856 15.7229 38 19.3729 38 23.269H38.5ZM38.7006 26.9239C38.5203 25.755 38.5 24.5165 38.5 23.269H38C38 24.5168 38.0197 25.7896 38.2065 27.0001L38.7006 26.9239ZM38.6907 26.8828L38.6886 26.8769L38.2185 27.0471L38.2206 27.053L38.6907 26.8828ZM38.7187 26.9562C38.7055 26.922 38.6961 26.8972 38.6901 26.8811L38.2212 27.0547C38.2284 27.074 38.2388 27.1013 38.2522 27.1361L38.7187 26.9562ZM38.8328 27.2478C38.7834 27.1225 38.7449 27.0241 38.7187 26.9562L38.2522 27.1361C38.2791 27.2058 38.3181 27.3056 38.3676 27.4311L38.8328 27.2478ZM39.241 28.276C39.072 27.8518 38.9314 27.498 38.8328 27.2478L38.3676 27.4311C38.4666 27.6823 38.6075 28.0368 38.7766 28.4611L39.241 28.276ZM40.4857 31.3892C40.0302 30.2515 39.5791 29.1242 39.241 28.276L38.7766 28.4611C39.1148 29.3097 39.5661 30.4374 40.0215 31.5751L40.4857 31.3892ZM40.6966 31.916L40.4857 31.3892L40.0215 31.5751L40.2324 32.1019L40.6966 31.916ZM42.4038 36.199C42.3322 36.0013 41.5317 34.002 40.6966 31.916L40.2324 32.1019C41.0712 34.1969 41.8659 36.182 41.9337 36.3692L42.4038 36.199ZM42.9686 37.6286C42.7271 37.0277 42.4737 36.3919 42.4038 36.199L41.9337 36.3692C42.0073 36.5726 42.2652 37.2192 42.5047 37.8151L42.9686 37.6286ZM43.2883 38.4214C43.2032 38.2109 43.0882 37.9261 42.9686 37.6286L42.5047 37.8151C42.6245 38.113 42.7396 38.3982 42.8248 38.6089L43.2883 38.4214ZM43.3752 38.6359L43.2883 38.4214L42.8248 38.609L42.9117 38.8235L43.3752 38.6359ZM38.2297 27.0678C38.2253 27.0599 38.2222 27.0535 38.221 27.0508C38.2194 27.0475 38.2183 27.0447 38.2175 27.043C38.2161 27.0396 38.215 27.0369 38.2145 27.0356C38.2134 27.0328 38.2127 27.0306 38.2123 27.0296C38.2116 27.0275 38.2111 27.026 38.2108 27.0253C38.2103 27.0238 38.2101 27.0229 38.21 27.0226L38.6887 26.8781C38.6877 26.8749 38.6867 26.8717 38.6856 26.8685C38.6851 26.867 38.6844 26.8648 38.6835 26.8623C38.6831 26.8611 38.6822 26.8587 38.6811 26.8558C38.6805 26.8544 38.6795 26.8516 38.678 26.8482C38.6777 26.8474 38.6731 26.8363 38.6658 26.8233L38.2297 27.0678ZM38.6857 26.8689C38.6854 26.8682 38.6857 26.8689 38.6862 26.8705C38.6863 26.8708 38.6872 26.8736 38.6882 26.8773C38.6885 26.8784 38.6891 26.8802 38.6897 26.8826C38.6901 26.8842 38.6914 26.8893 38.6928 26.8959C38.6934 26.8989 38.6948 26.9063 38.696 26.9158C38.6965 26.9204 38.6974 26.9291 38.6977 26.94C38.6978 26.9473 38.6984 26.9731 38.6906 27.0048C38.6879 27.0159 38.6571 27.1494 38.5107 27.1875C38.4404 27.2058 38.3814 27.1894 38.3474 27.1745C38.3146 27.1601 38.2923 27.1419 38.2812 27.132C38.2593 27.1124 38.246 27.0934 38.2419 27.0875C38.2361 27.0791 38.232 27.072 38.2298 27.068L38.6657 26.8231C38.6635 26.8191 38.6594 26.812 38.6536 26.8036C38.6495 26.7977 38.6362 26.7787 38.6143 26.7591C38.6032 26.7492 38.5809 26.731 38.5481 26.7166C38.5141 26.7017 38.4551 26.6853 38.3848 26.7036C38.2384 26.7417 38.2076 26.8751 38.2049 26.8862C38.1971 26.918 38.1976 26.9438 38.1978 26.9511C38.198 26.962 38.199 26.9706 38.1995 26.9753C38.2007 26.9849 38.2021 26.9922 38.2027 26.9952C38.2041 27.0019 38.2054 27.007 38.2059 27.0087C38.2065 27.0111 38.207 27.013 38.2074 27.0142C38.2085 27.0183 38.2096 27.0216 38.2099 27.0227C38.2109 27.0259 38.212 27.029 38.213 27.0318L38.6857 26.8689Z"/>
</svg>
