<?xml version="1.0" encoding="UTF-8"?><svg xmlns="http://www.w3.org/2000/svg" xmlns:xlink="http://www.w3.org/1999/xlink" version="1.1" id="CREA" x="0px" y="0px" viewBox="0 0 368 69.1" style="enable-background:new 0 0 368 69.1;" xml:space="preserve"> <style type="text/css"> .st0{fill:#52C483;} </style> <g> <g> <g> <path class="st0" d="M111.7,45.9c1.5-0.6,2.9-1.5,4.2-2.8l5.8,6.3c-3.5,4.1-8.7,6.1-15.5,6.1c-4.2,0-8-0.8-11.3-2.5 s-5.8-4-7.6-6.9s-2.7-6.3-2.7-10s0.9-7,2.6-10c1.8-3,4.2-5.3,7.2-6.9c3.1-1.7,6.5-2.5,10.3-2.5c3.6,0,6.9,0.8,9.8,2.3 c2.9,1.5,5.3,3.7,7,6.6c1.8,2.9,2.6,6.3,2.6,10.2l-27.9,5.4c0.8,1.9,2,3.3,3.7,4.2c1.7,0.9,3.8,1.4,6.3,1.4 C108.5,46.8,110.2,46.5,111.7,45.9z M98.2,27.7c-1.7,1.8-2.6,4.2-2.7,7.4l18.3-3.6c-0.5-2-1.6-3.5-3.2-4.7 c-1.6-1.2-3.5-1.7-5.7-1.7C102.1,25,99.9,25.9,98.2,27.7z"></path> <path class="st0" d="M169.5,17.3V55h-10.4v-4.3c-2.7,3.3-6.6,4.9-11.8,4.9c-3.5,0-6.8-0.8-9.6-2.4c-2.9-1.6-5.1-3.9-6.8-6.8 c-1.6-2.9-2.4-6.3-2.4-10.2c0-3.9,0.8-7.3,2.4-10.2c1.6-2.9,3.9-5.2,6.8-6.8c2.9-1.6,6.1-2.4,9.6-2.4c4.8,0,8.6,1.5,11.3,4.6v-4 L169.5,17.3L169.5,17.3z M156,43.7c1.8-1.9,2.7-4.4,2.7-7.6s-0.9-5.7-2.7-7.6s-4.1-2.8-6.9-2.8c-2.8,0-5.1,0.9-6.9,2.8 c-1.8,1.9-2.7,4.4-2.7,7.6s0.9,5.7,2.7,7.6s4.1,2.8,6.9,2.8C151.9,46.6,154.2,45.6,156,43.7z"></path> <path class="st0" d="M182.7,54.4c-3-0.8-5.4-1.7-7.1-2.9l3.6-7.8c1.7,1.1,3.7,1.9,6.1,2.6c2.4,0.7,4.7,1,7,1 c4.6,0,6.9-1.1,6.9-3.4c0-1.1-0.6-1.8-1.9-2.3c-1.3-0.5-3.2-0.9-5.8-1.2c-3.1-0.5-5.6-1-7.6-1.6s-3.7-1.7-5.2-3.2 s-2.2-3.7-2.2-6.6c0-2.4,0.7-4.5,2.1-6.3c1.4-1.8,3.4-3.3,6-4.3s5.8-1.5,9.3-1.5c2.7,0,5.3,0.3,7.9,0.9s4.8,1.4,6.5,2.4l-3.6,7.8 c-3.3-1.9-6.9-2.8-10.9-2.8c-2.3,0-4.1,0.3-5.3,1s-1.8,1.5-1.8,2.5c0,1.2,0.6,2,1.9,2.5c1.3,0.5,3.3,0.9,6,1.3 c3.1,0.5,5.6,1.1,7.6,1.6c2,0.6,3.7,1.6,5.1,3.2c1.4,1.5,2.2,3.7,2.2,6.4c0,2.3-0.7,4.4-2.1,6.2c-1.4,1.8-3.4,3.2-6.1,4.2 c-2.7,1-5.9,1.5-9.6,1.5C188.7,55.5,185.7,55.2,182.7,54.4z"></path> <path class="st0" d="M253.2,17.3v31.4c0,6.9-1.8,12-5.3,15.4c-3.5,3.4-8.6,5-15.3,5c-3.5,0-6.9-0.4-10-1.3 c-3.2-0.9-5.8-2.2-7.9-3.9l4.3-7.8c1.6,1.3,3.5,2.3,5.8,3.1c2.3,0.7,4.6,1.1,6.9,1.1c3.6,0,6.3-0.8,8-2.5s2.5-4.2,2.5-7.7v-1.3 c-1.4,1.4-3.1,2.5-5,3.2s-4,1.1-6.2,1.1c-4.9,0-8.9-1.4-11.8-4.2c-2.9-2.8-4.3-7.1-4.3-12.7V17.3h10.9v17.3 c0,6.1,2.5,9.2,7.6,9.2c2.6,0,4.7-0.9,6.3-2.6c1.6-1.7,2.4-4.2,2.4-7.6V17.3H253.2z"></path> <path class="st0" d="M265.8,52.1c-2.4-2.3-3.6-5.5-3.6-9.6V3h10.9v38.9c0,1.6,0.4,2.8,1.2,3.7c0.8,0.9,2,1.3,3.5,1.3 c0.6,0,1.1-0.1,1.7-0.2c0.6-0.1,1-0.3,1.4-0.5l0.5,8.5c-1.8,0.6-3.7,0.9-5.7,0.9C271.5,55.5,268.2,54.4,265.8,52.1z"></path> <path class="st0" d="M286.5,10.3c-1.3-1.2-1.9-2.6-1.9-4.3c0-1.7,0.6-3.2,1.9-4.3c1.3-1.2,2.9-1.7,4.9-1.7s3.6,0.6,4.9,1.7 c1.3,1.1,1.9,2.5,1.9,4.2c0,1.8-0.6,3.3-1.9,4.5s-2.9,1.8-4.9,1.8C289.4,12.1,287.7,11.5,286.5,10.3z M285.9,17.3h10.9V55h-10.9 V17.3z"></path> <path class="st0" d="M316.6,18.2h9.7v8.4h-9.4V55H306V16.5c0-4.3,1.3-7.7,3.8-10.2s6.1-3.8,10.7-3.8c1.6,0,3.2,0.2,4.7,0.5 c1.5,0.4,2.7,0.9,3.7,1.5l-2.9,7.9c-1.3-0.9-2.7-1.3-4.4-1.3c-3.3,0-5,1.8-5,5.5L316.6,18.2L316.6,18.2z"></path> <path class="st0" d="M355.6,45.9c1.5-0.6,2.9-1.5,4.2-2.8l5.8,6.3c-3.5,4.1-8.7,6.1-15.5,6.1c-4.2,0-8-0.8-11.3-2.5 s-5.8-4-7.6-6.9s-2.7-6.3-2.7-10s0.9-7,2.6-10c1.8-3,4.2-5.3,7.2-6.9c3.1-1.7,6.5-2.5,10.3-2.5c3.6,0,6.9,0.8,9.8,2.3 c2.9,1.5,5.3,3.7,7,6.6c1.8,2.9,2.6,6.3,2.6,10.2l-27.9,5.4c0.8,1.9,2,3.3,3.7,4.2c1.7,0.9,3.8,1.4,6.3,1.4 C352.3,46.8,354,46.5,355.6,45.9z M342,27.7c-1.7,1.8-2.6,4.2-2.7,7.4l18.3-3.6c-0.5-2-1.6-3.5-3.2-4.7c-1.6-1.2-3.5-1.7-5.7-1.7 C346,25,343.7,25.9,342,27.7z"></path> </g> </g> <path class="st0" d="M31.5,17.3c7,0,12.6,5.6,12.6,12.6s-5.6,12.6-12.6,12.6v12.6c13.9,0,25.2-11.3,25.2-25.2S45.4,4.7,31.5,4.7 C14.1,4.7,0,18.8,0,36.2s14.1,31.5,31.5,31.5V55.1c-10.5,0-18.9-8.5-18.9-18.9S21.1,17.3,31.5,17.3"></path></g></svg>